<svg width="18" height="19" viewBox="0 0 18 19" fill="none" xmlns="http://www.w3.org/2000/svg">
<path d="M10.45 0.529535C10.0442 0.187557 9.53065 0 9 0C8.46935 0 7.95577 0.187557 7.55 0.529535L0.8 6.22453C0.549459 6.43569 0.348059 6.69902 0.209877 6.99611C0.0716959 7.2932 6.77287e-05 7.61688 0 7.94454V17.2495C0 18.2155 0.784 18.9995 1.75 18.9995H4.75C5.21413 18.9995 5.65925 18.8152 5.98744 18.487C6.31563 18.1588 6.5 17.7137 6.5 17.2495V13.2465C6.5 12.5665 7.042 12.0145 7.717 11.9965H10.283C10.6088 12.0051 10.9183 12.1406 11.1456 12.3741C11.373 12.6076 11.5001 12.9207 11.5 13.2465V17.2495C11.5 18.2155 12.284 18.9995 13.25 18.9995H16.25C16.7141 18.9995 17.1592 18.8152 17.4874 18.487C17.8156 18.1588 18 17.7137 18 17.2495V7.94353C17.9999 7.61588 17.9283 7.2922 17.7901 6.99511C17.6519 6.69802 17.4505 6.43469 17.2 6.22354L10.45 0.529535Z" fill="#58A24E"/>
</svg>
