<svg width="18" height="19" viewBox="0 0 18 19" fill="none" xmlns="http://www.w3.org/2000/svg">
<path d="M7.71171 0.486786C8.0657 0.173376 8.52477 0 9.00064 0C9.47652 0 9.93559 0.173376 10.2896 0.486786L17.361 6.74824C17.5621 6.92641 17.7228 7.14425 17.8329 7.38763C17.943 7.631 17.9999 7.89447 18 8.16092V17.0995C18 17.6036 17.7968 18.087 17.4351 18.4434C17.0735 18.7998 16.5829 19 16.0714 19H12.8571C12.3457 19 11.8551 18.7998 11.4934 18.4434C11.1318 18.087 10.9286 17.6036 10.9286 17.0995V12.6651C10.9286 12.4971 10.8608 12.3359 10.7403 12.2171C10.6197 12.0983 10.4562 12.0316 10.2857 12.0316H7.71429C7.54379 12.0316 7.38028 12.0983 7.25972 12.2171C7.13916 12.3359 7.07143 12.4971 7.07143 12.6651V17.0995C7.07143 17.6036 6.86824 18.087 6.50656 18.4434C6.14489 18.7998 5.65435 19 5.14286 19H1.92857C1.41708 19 0.926543 18.7998 0.564866 18.4434C0.203188 18.087 0 17.6036 0 17.0995V8.16092C0 7.62246 0.231428 7.10933 0.640286 6.74824L7.71171 0.486786ZM9.42943 1.42942C9.31146 1.32507 9.15852 1.26735 9 1.26735C8.84147 1.26735 8.68854 1.32507 8.57057 1.42942L1.49914 7.69087C1.43215 7.75013 1.37854 7.82259 1.34177 7.90356C1.30501 7.98454 1.28591 8.07222 1.28571 8.16092V17.0995C1.28571 17.2675 1.35344 17.4287 1.474 17.5475C1.59456 17.6663 1.75808 17.733 1.92857 17.733H5.14286C5.31335 17.733 5.47687 17.6663 5.59743 17.5475C5.71798 17.4287 5.78571 17.2675 5.78571 17.0995V12.6651C5.78571 12.161 5.9889 11.6776 6.35058 11.3212C6.71226 10.9648 7.2028 10.7646 7.71429 10.7646H10.2857C10.7972 10.7646 11.2877 10.9648 11.6494 11.3212C12.0111 11.6776 12.2143 12.161 12.2143 12.6651V17.0995C12.2143 17.2675 12.282 17.4287 12.4026 17.5475C12.5231 17.6663 12.6866 17.733 12.8571 17.733H16.0714C16.2419 17.733 16.4054 17.6663 16.526 17.5475C16.6466 17.4287 16.7143 17.2675 16.7143 17.0995V8.16092C16.7141 8.07222 16.695 7.98454 16.6582 7.90356C16.6215 7.82259 16.5678 7.75013 16.5009 7.69087L9.42943 1.42942Z" fill="#788176"/>
</svg>
