<svg width="15" height="19" viewBox="0 0 15 19" fill="none" xmlns="http://www.w3.org/2000/svg">
<path d="M7.5 2.375C6.83696 2.375 6.20107 2.62522 5.73223 3.07062C5.26339 3.51602 5 4.12011 5 4.75C5 5.37989 5.26339 5.98398 5.73223 6.42938C6.20107 6.87478 6.83696 7.125 7.5 7.125C8.16304 7.125 8.79893 6.87478 9.26777 6.42938C9.73661 5.98398 10 5.37989 10 4.75C10 4.12011 9.73661 3.51602 9.26777 3.07062C8.79893 2.62522 8.16304 2.375 7.5 2.375ZM6.25 4.75C6.25 4.43506 6.3817 4.13301 6.61612 3.91031C6.85054 3.68761 7.16848 3.5625 7.5 3.5625C7.83152 3.5625 8.14946 3.68761 8.38388 3.91031C8.6183 4.13301 8.75 4.43506 8.75 4.75C8.75 5.06494 8.6183 5.36699 8.38388 5.58969C8.14946 5.81239 7.83152 5.9375 7.5 5.9375C7.16848 5.9375 6.85054 5.81239 6.61612 5.58969C6.3817 5.36699 6.25 5.06494 6.25 4.75ZM3.125 14.8438C2.95924 14.8438 2.80027 14.9063 2.68306 15.0177C2.56585 15.129 2.5 15.28 2.5 15.4375C2.5 15.595 2.56585 15.746 2.68306 15.8573C2.80027 15.9687 2.95924 16.0312 3.125 16.0312H11.875C12.0408 16.0312 12.1997 15.9687 12.3169 15.8573C12.4342 15.746 12.5 15.595 12.5 15.4375C12.5 15.28 12.4342 15.129 12.3169 15.0177C12.1997 14.9063 12.0408 14.8438 11.875 14.8438H3.125ZM0 2.375C0 1.74511 0.263392 1.14102 0.732233 0.695621C1.20107 0.250222 1.83696 0 2.5 0H12.5C13.163 0 13.7989 0.250222 14.2678 0.695621C14.7366 1.14102 15 1.74511 15 2.375V16.625C15 17.2549 14.7366 17.859 14.2678 18.3044C13.7989 18.7498 13.163 19 12.5 19H2.5C1.83696 19 1.20107 18.7498 0.732233 18.3044C0.263392 17.859 0 17.2549 0 16.625V2.375ZM12.5 1.1875H2.5C2.16848 1.1875 1.85054 1.31261 1.61612 1.53531C1.3817 1.75801 1.25 2.06006 1.25 2.375V11.875H3.75V9.5C3.75 9.18506 3.8817 8.88301 4.11612 8.66031C4.35054 8.43761 4.66848 8.3125 5 8.3125H10C10.3315 8.3125 10.6495 8.43761 10.8839 8.66031C11.1183 8.88301 11.25 9.18506 11.25 9.5V11.875H13.75V2.375C13.75 2.06006 13.6183 1.75801 13.3839 1.53531C13.1495 1.31261 12.8315 1.1875 12.5 1.1875ZM10 9.5H5V11.875H10V9.5ZM1.25 13.0625V16.625C1.25 16.9399 1.3817 17.242 1.61612 17.4647C1.85054 17.6874 2.16848 17.8125 2.5 17.8125H12.5C12.8315 17.8125 13.1495 17.6874 13.3839 17.4647C13.6183 17.242 13.75 16.9399 13.75 16.625V13.0625H1.25Z" fill="#788176"/>
</svg>
