<svg width="15" height="19" viewBox="0 0 15 19" fill="none" xmlns="http://www.w3.org/2000/svg">
<path d="M7.5 2.37497C6.83696 2.37497 6.20107 2.62519 5.73223 3.07059C5.26339 3.51599 5 4.12008 5 4.74997C5 5.37986 5.26339 5.98395 5.73223 6.42935C6.20107 6.87475 6.83696 7.12497 7.5 7.12497C8.16304 7.12497 8.79893 6.87475 9.26777 6.42935C9.73661 5.98395 10 5.37986 10 4.74997C10 4.12008 9.73661 3.51599 9.26777 3.07059C8.79893 2.62519 8.16304 2.37497 7.5 2.37497ZM3.125 14.8437C2.95924 14.8437 2.80027 14.9063 2.68306 15.0176C2.56585 15.129 2.5 15.28 2.5 15.4375C2.5 15.5949 2.56585 15.746 2.68306 15.8573C2.80027 15.9687 2.95924 16.0312 3.125 16.0312H11.875C12.0408 16.0312 12.1997 15.9687 12.3169 15.8573C12.4342 15.746 12.5 15.5949 12.5 15.4375C12.5 15.28 12.4342 15.129 12.3169 15.0176C12.1997 14.9063 12.0408 14.8437 11.875 14.8437H3.125ZM0 2.37497C0 1.74508 0.263392 1.14099 0.732233 0.695591C1.20107 0.250192 1.83696 -3.05176e-05 2.5 -3.05176e-05H12.5C13.163 -3.05176e-05 13.7989 0.250192 14.2678 0.695591C14.7366 1.14099 15 1.74508 15 2.37497V16.625C15 17.2549 14.7366 17.8589 14.2678 18.3043C13.7989 18.7497 13.163 19 12.5 19H2.5C1.83696 19 1.20107 18.7497 0.732233 18.3043C0.263392 17.8589 0 17.2549 0 16.625V2.37497ZM12.5 1.18747H2.5C2.16848 1.18747 1.85054 1.31258 1.61612 1.53528C1.3817 1.75798 1.25 2.06002 1.25 2.37497V11.875H3.75V9.49997C3.75 9.18503 3.8817 8.88298 4.11612 8.66028C4.35054 8.43758 4.66848 8.31247 5 8.31247H10C10.3315 8.31247 10.6495 8.43758 10.8839 8.66028C11.1183 8.88298 11.25 9.18503 11.25 9.49997V11.875H13.75V2.37497C13.75 2.06002 13.6183 1.75798 13.3839 1.53528C13.1495 1.31258 12.8315 1.18747 12.5 1.18747ZM1.25 13.0625V16.625C1.25 16.9399 1.3817 17.242 1.61612 17.4647C1.85054 17.6874 2.16848 17.8125 2.5 17.8125H12.5C12.8315 17.8125 13.1495 17.6874 13.3839 17.4647C13.6183 17.242 13.75 16.9399 13.75 16.625V13.0625H1.25Z" fill="#58A24E"/>
</svg>
