<svg width="18" height="18" viewBox="0 0 18 18" fill="none" xmlns="http://www.w3.org/2000/svg">
<path fill-rule="evenodd" clip-rule="evenodd" d="M4.2165 13.721C3.91484 13.9058 3.6882 14.1913 3.57662 14.527C3.46504 14.8627 3.4757 15.227 3.60671 15.5556C3.73773 15.8842 3.98067 16.1559 4.29261 16.3228C4.60456 16.4896 4.96543 16.5408 5.31148 16.4674C5.65753 16.3939 5.96649 16.2006 6.18377 15.9214C6.40105 15.6422 6.51267 15.2952 6.49892 14.9417C6.48516 14.5883 6.34691 14.251 6.10859 13.9896C5.87027 13.7281 5.54721 13.5593 5.1965 13.513C5.17777 13.4459 5.1606 13.3784 5.145 13.3105C5.07691 13.0015 5.02351 12.6895 4.985 12.3755C4.94367 12.0581 4.92029 11.7386 4.915 11.4185C4.91419 11.3306 4.91669 11.2427 4.9225 11.155C5.11483 11.0997 5.30733 11.0502 5.5 11.0065C5.7205 10.9565 5.8515 11.2165 5.957 11.4275L6 11.512H11.8745C11.989 11.295 12.2485 10.949 12.5 11.0065C12.7687 11.0678 13.0368 11.14 13.3045 11.223L13.303 11.2235C13.302 11.2225 13.302 11.2228 13.303 11.2245C13.305 11.2315 13.316 11.2645 13.327 11.3345C13.3397 11.4158 13.348 11.52 13.352 11.647C13.359 11.899 13.3445 12.2055 13.315 12.5145C13.285 12.823 13.2405 13.1215 13.1905 13.357C13.1795 13.4093 13.1685 13.457 13.1575 13.5H12.5C12.4072 13.5 12.3162 13.5259 12.2372 13.5748C12.1583 13.6236 12.0945 13.6935 12.053 13.7765L11.553 14.7765C11.5182 14.8459 11.5001 14.9224 11.5 15V16C11.5 16.1326 11.5527 16.2598 11.6464 16.3536C11.7402 16.4473 11.8674 16.5 12 16.5H13V15.5H12.5V15.118L12.809 14.5H14.191L14.5 15.118V15.5H14V16.5H15C15.1326 16.5 15.2598 16.4473 15.3536 16.3536C15.4473 16.2598 15.5 16.1326 15.5 16V15C15.4999 14.9224 15.4818 14.8459 15.447 14.7765L14.947 13.7765C14.9055 13.6935 14.8417 13.6236 14.7628 13.5748C14.6838 13.5259 14.5928 13.5 14.5 13.5H14.182C14.2355 13.2335 14.28 12.9225 14.31 12.6105C14.343 12.2735 14.36 11.924 14.3515 11.619L14.351 11.605C16.345 12.4475 18 13.833 18 15.285V18H0V15.285C0 13.769 1.805 12.325 3.9155 11.4965C3.921 11.8075 3.9505 12.159 3.993 12.4995C4.039 12.867 4.1015 13.2325 4.1705 13.5335C4.1855 13.5978 4.20083 13.6603 4.2165 13.721ZM5 15.5075C5.269 15.5075 5.5 15.2875 5.5 15C5.5 14.713 5.269 14.4925 5 14.4925C4.731 14.4925 4.5 14.7125 4.5 15C4.5 15.287 4.731 15.5075 5 15.5075ZM9 9C10.0609 9 11.0783 8.57857 11.8284 7.82843C12.5786 7.07828 13 6.06087 13 5C13 3.93913 12.5786 2.92172 11.8284 2.17157C11.0783 1.42143 10.0609 1 9 1C7.93913 1 6.92172 1.42143 6.17157 2.17157C5.42143 2.92172 5 3.93913 5 5C5 6.06087 5.42143 7.07828 6.17157 7.82843C6.92172 8.57857 7.93913 9 9 9ZM9 10C11.7615 10 14 7.7615 14 5C14 2.2385 11.7615 0 9 0C6.2385 0 4 2.2385 4 5C4 7.7615 6.2385 10 9 10Z" fill="#58A24E"/>
</svg>
